<svg width="23" height="24" viewBox="0 0 23 24" fill="none" xmlns="http://www.w3.org/2000/svg">
<g clip-path="url(#clip0_1_45)">
<path d="M15.708 12C15.708 12.7956 15.3919 13.5587 14.8293 14.1213C14.2667 14.6839 13.5037 15 12.708 15C11.9124 15 11.1493 14.6839 10.5867 14.1213C10.0241 13.5587 9.70801 12.7956 9.70801 12C9.70801 11.2044 10.0241 10.4413 10.5867 9.87868C11.1493 9.31607 11.9124 9 12.708 9C13.5037 9 14.2667 9.31607 14.8293 9.87868C15.3919 10.4413 15.708 11.2044 15.708 12Z" fill="#006ADC"/>
<path d="M12.708 21.9C16.428 21.9 19.668 19.848 21.36 16.812L23.28 17.664C22.0176 20.0219 20.0037 21.8904 17.5581 22.973C15.1124 24.0556 12.3752 24.2901 9.78108 23.6394C7.18692 22.9886 4.8845 21.4899 3.2394 19.3812C1.5943 17.2724 0.700821 14.6745 0.700821 12C0.700821 9.32547 1.5943 6.72759 3.2394 4.61885C4.8845 2.5101 7.18692 1.01138 9.78108 0.36063C12.3752 -0.290116 15.1124 -0.0555812 17.5581 1.027C20.0037 2.10957 22.0176 3.97814 23.28 6.33601L21.36 7.20001C20.5138 5.67349 19.279 4.39783 17.7808 3.50233C16.2826 2.60684 14.5744 2.12333 12.8291 2.10083C11.0839 2.07833 9.36368 2.51763 7.84293 3.37421C6.32218 4.23078 5.05491 5.47418 4.16959 6.97838C3.28426 8.48257 2.81234 10.1941 2.80167 11.9395C2.79099 13.6848 3.24194 15.402 4.1088 16.9169C4.97566 18.4318 6.22761 19.6906 7.73777 20.5657C9.24793 21.4408 10.9626 21.9012 12.708 21.9Z" fill="white"/>
<path fill-rule="evenodd" clip-rule="evenodd" d="M12.708 19.5C14.6971 19.5 16.6048 18.7098 18.0113 17.3033C19.4178 15.8968 20.208 13.9891 20.208 12C20.208 10.0109 19.4178 8.10321 18.0113 6.69669C16.6048 5.29016 14.6971 4.49999 12.708 4.49999C10.7189 4.49999 8.81123 5.29016 7.40471 6.69669C5.99818 8.10321 5.20801 10.0109 5.20801 12C5.20801 13.9891 5.99818 15.8968 7.40471 17.3033C8.81123 18.7098 10.7189 19.5 12.708 19.5ZM12.708 17.4C13.4171 17.4 14.1193 17.2603 14.7745 16.9889C15.4297 16.7176 16.0249 16.3198 16.5264 15.8184C17.0278 15.3169 17.4256 14.7216 17.697 14.0665C17.9683 13.4113 18.108 12.7091 18.108 12C18.108 11.2909 17.9683 10.5887 17.697 9.9335C17.4256 9.27834 17.0278 8.68305 16.5264 8.18161C16.0249 7.68017 15.4297 7.28241 14.7745 7.01104C14.1193 6.73966 13.4171 6.59999 12.708 6.59999C11.2758 6.59999 9.90233 7.16891 8.88963 8.18161C7.87693 9.19431 7.30801 10.5678 7.30801 12C7.30801 13.4322 7.87693 14.8057 8.88963 15.8184C9.90233 16.8311 11.2758 17.4 12.708 17.4ZM58.476 18.168C57.7068 18.2047 56.9471 17.9853 56.316 17.544C55.7875 17.1269 55.3744 16.5817 55.116 15.96C54.984 15.6 54.876 15.24 54.78 14.88V17.88H52.332V1.79999H54.78V9.31199C54.876 8.93999 54.996 8.56799 55.14 8.20799C55.416 7.54799 55.824 7.01999 56.364 6.62399C56.9947 6.18189 57.7547 5.96235 58.524 5.99999C59.484 5.99999 60.324 6.23999 61.02 6.74399C61.728 7.23599 62.268 7.94399 62.652 8.85599C63.036 9.75599 63.228 10.824 63.228 12.072C63.228 13.308 63.036 14.376 62.652 15.288C62.3131 16.1422 61.7389 16.8829 60.996 17.424C60.3 17.916 59.46 18.168 58.476 18.168ZM55.044 14.544C54.8595 13.9952 54.7702 13.4189 54.78 12.84V11.328C54.78 10.692 54.876 10.128 55.044 9.62399C55.236 9.13199 55.548 8.73599 55.956 8.44799C56.376 8.15999 56.916 8.01599 57.588 8.01599C58.488 8.01599 59.232 8.33999 59.82 8.99999C60.432 9.65999 60.732 10.68 60.732 12.072C60.732 13.452 60.432 14.472 59.82 15.144C59.232 15.816 58.488 16.152 57.588 16.152C56.916 16.152 56.376 16.008 55.956 15.72C55.548 15.432 55.236 15.036 55.044 14.544Z" fill="white"/>
</g>
<defs>
<clipPath id="clip0_1_45">
<rect width="23" height="24" fill="white"/>
</clipPath>
</defs>
</svg>
