<svg width="90" height="24" viewBox="0 0 90 24" fill="none" xmlns="http://www.w3.org/2000/svg">
<g clip-path="url(#clip0_1_45)">
<path d="M15.708 12C15.708 12.7956 15.3919 13.5587 14.8293 14.1213C14.2667 14.6839 13.5037 15 12.708 15C11.9124 15 11.1493 14.6839 10.5867 14.1213C10.0241 13.5587 9.70801 12.7956 9.70801 12C9.70801 11.2044 10.0241 10.4413 10.5867 9.87868C11.1493 9.31607 11.9124 9 12.708 9C13.5037 9 14.2667 9.31607 14.8293 9.87868C15.3919 10.4413 15.708 11.2044 15.708 12Z" fill="#006ADC"/>
<path d="M12.708 21.9C16.428 21.9 19.668 19.848 21.36 16.812L23.28 17.664C22.0176 20.0219 20.0037 21.8904 17.5581 22.973C15.1124 24.0556 12.3752 24.2901 9.78108 23.6394C7.18692 22.9886 4.8845 21.4899 3.2394 19.3812C1.5943 17.2724 0.700821 14.6745 0.700821 12C0.700821 9.32547 1.5943 6.72759 3.2394 4.61885C4.8845 2.5101 7.18692 1.01138 9.78108 0.36063C12.3752 -0.290116 15.1124 -0.0555812 17.5581 1.027C20.0037 2.10957 22.0176 3.97814 23.28 6.33601L21.36 7.20001C20.5138 5.67349 19.279 4.39783 17.7808 3.50233C16.2826 2.60684 14.5744 2.12333 12.8291 2.10083C11.0839 2.07833 9.36368 2.51763 7.84293 3.37421C6.32218 4.23078 5.05491 5.47418 4.16959 6.97838C3.28426 8.48257 2.81234 10.1941 2.80167 11.9395C2.79099 13.6848 3.24194 15.402 4.1088 16.9169C4.97566 18.4318 6.22761 19.6906 7.73777 20.5657C9.24793 21.4408 10.9626 21.9012 12.708 21.9Z" fill="white"/>
<path fill-rule="evenodd" clip-rule="evenodd" d="M12.708 19.5C14.6971 19.5 16.6048 18.7098 18.0113 17.3033C19.4178 15.8968 20.208 13.9891 20.208 12C20.208 10.0109 19.4178 8.10321 18.0113 6.69669C16.6048 5.29016 14.6971 4.49999 12.708 4.49999C10.7189 4.49999 8.81123 5.29016 7.40471 6.69669C5.99818 8.10321 5.20801 10.0109 5.20801 12C5.20801 13.9891 5.99818 15.8968 7.40471 17.3033C8.81123 18.7098 10.7189 19.5 12.708 19.5ZM12.708 17.4C13.4171 17.4 14.1193 17.2603 14.7745 16.9889C15.4297 16.7176 16.0249 16.3198 16.5264 15.8184C17.0278 15.3169 17.4256 14.7216 17.697 14.0665C17.9683 13.4113 18.108 12.7091 18.108 12C18.108 11.2908 17.9683 10.5887 17.697 9.9335C17.4256 9.27834 17.0278 8.68305 16.5264 8.18161C16.0249 7.68017 15.4297 7.28241 14.7745 7.01104C14.1193 6.73966 13.4171 6.59999 12.708 6.59999C11.2758 6.59999 9.90233 7.16891 8.88963 8.18161C7.87693 9.19431 7.30801 10.5678 7.30801 12C7.30801 13.4322 7.87693 14.8057 8.88963 15.8184C9.90233 16.8311 11.2758 17.4 12.708 17.4ZM58.476 18.168C57.7068 18.2047 56.9471 17.9853 56.316 17.544C55.7875 17.1269 55.3744 16.5817 55.116 15.96C54.984 15.6 54.876 15.24 54.78 14.88V17.88H52.332V1.79999H54.78V9.31199C54.876 8.93999 54.996 8.56799 55.14 8.20799C55.416 7.54799 55.824 7.01999 56.364 6.62399C56.9947 6.18189 57.7547 5.96235 58.524 5.99999C59.484 5.99999 60.324 6.23999 61.02 6.74399C61.728 7.23599 62.268 7.94399 62.652 8.85599C63.036 9.75599 63.228 10.824 63.228 12.072C63.228 13.308 63.036 14.376 62.652 15.288C62.3131 16.1422 61.7389 16.8829 60.996 17.424C60.3 17.916 59.46 18.168 58.476 18.168ZM55.044 14.544C54.8595 13.9952 54.7702 13.4189 54.78 12.84V11.328C54.78 10.692 54.876 10.128 55.044 9.62399C55.236 9.13199 55.548 8.73599 55.956 8.44799C56.376 8.15999 56.916 8.01599 57.588 8.01599C58.488 8.01599 59.232 8.33999 59.82 8.99999C60.432 9.65999 60.732 10.68 60.732 12.072C60.732 13.452 60.432 14.472 59.82 15.144C59.232 15.816 58.488 16.152 57.588 16.152C56.916 16.152 56.376 16.008 55.956 15.72C55.548 15.432 55.236 15.036 55.044 14.544Z" fill="white"/>
<path d="M30.216 17.376C31.056 17.868 32.028 18.12 33.168 18.12C34.668 18.12 35.868 17.748 36.768 16.992C37.6613 16.27 38.2935 15.2753 38.568 14.16L36.288 13.104C36.168 13.98 35.88 14.7 35.4 15.264C34.92 15.804 34.2 16.08 33.216 16.08C32.58 16.08 32.016 15.924 31.536 15.624C31.0534 15.2799 30.6787 14.8053 30.456 14.256C30.1986 13.5491 30.0765 12.8001 30.096 12.048C30.096 11.208 30.216 10.488 30.456 9.88801C30.708 9.28801 31.068 8.82001 31.536 8.52001C32.016 8.19601 32.58 8.04001 33.216 8.04001C34.188 8.04001 34.92 8.31601 35.4 8.88001C35.88 9.42001 36.18 10.128 36.288 10.992L38.568 9.96001C38.2935 8.84469 37.6613 7.84997 36.768 7.12801C35.7416 6.33335 34.4643 5.93313 33.168 6.00001C32.028 6.00001 31.044 6.24001 30.216 6.74401C29.376 7.23601 28.74 7.94401 28.272 8.85601C27.8051 9.85404 27.5751 10.9464 27.6 12.048C27.6 13.26 27.828 14.328 28.272 15.24C28.74 16.152 29.388 16.86 30.216 17.376Z" fill="white"/>
<path fill-rule="evenodd" clip-rule="evenodd" d="M41.916 17.376C42.756 17.868 43.74 18.12 44.82 18.12C45.8278 18.1685 46.8279 17.9218 47.6976 17.4103C48.5672 16.8987 49.2687 16.1444 49.716 15.24C50.196 14.328 50.436 13.26 50.436 12.048C50.436 10.836 50.196 9.768 49.716 8.856C49.2805 7.97477 48.5963 7.2405 47.748 6.744C46.8569 6.23661 45.8452 5.97954 44.82 6C43.74 6 42.768 6.24 41.916 6.744C41.076 7.236 40.416 7.944 39.948 8.856C39.466 9.84971 39.2275 10.9439 39.252 12.048C39.252 13.26 39.492 14.328 39.948 15.24C40.3914 16.122 41.0732 16.862 41.916 17.376ZM46.452 15.648C45.996 15.936 45.456 16.08 44.844 16.08C44.244 16.08 43.704 15.936 43.236 15.648C42.78 15.36 42.396 14.928 42.132 14.328C41.8518 13.6016 41.7212 12.8261 41.748 12.048C41.748 11.124 41.868 10.368 42.132 9.768C42.408 9.168 42.78 8.736 43.236 8.448C43.704 8.16 44.244 8.016 44.844 8.016C45.444 8.016 45.996 8.16 46.452 8.448C46.932 8.736 47.292 9.168 47.556 9.768C47.832 10.368 47.964 11.124 47.964 12.048C47.964 12.972 47.832 13.728 47.556 14.328C47.304 14.928 46.932 15.36 46.452 15.648ZM73.548 17.88H75.084V15.744H74.34C74.1679 15.755 73.9976 15.7039 73.86 15.6C73.764 15.48 73.716 15.3 73.716 15.048V10.512C73.716 9.084 73.32 7.992 72.54 7.2C71.772 6.396 70.668 6 69.228 6C68.2132 5.98339 67.2095 6.21264 66.3026 6.66819C65.3957 7.12374 64.6125 7.79204 64.02 8.616L65.58 10.344C65.8927 9.72844 66.3447 9.1943 66.9 8.784C67.5031 8.35966 68.2268 8.14086 68.964 8.16C69.924 8.16 70.56 8.4 70.86 8.88C71.124 9.276 71.28 9.744 71.328 10.296L67.308 12.048C66.408 12.408 65.688 12.864 65.148 13.392C64.62 13.92 64.356 14.592 64.356 15.384C64.356 16.2 64.632 16.86 65.172 17.376C65.8027 17.9007 66.6089 18.1666 67.428 18.12C68.1215 18.15 68.8094 17.9834 69.4123 17.6394C70.0153 17.2955 70.5088 16.7882 70.836 16.176C71.088 15.732 71.28 15.288 71.388 14.856V15.624C71.388 16.188 71.484 16.632 71.676 16.968C71.868 17.292 72.12 17.52 72.444 17.664C72.78 17.808 73.152 17.88 73.548 17.88ZM71.388 13.392V12L68.244 13.464C67.716 13.704 67.332 13.944 67.092 14.184C66.8747 14.4094 66.7541 14.7109 66.756 15.024C66.756 15.384 66.876 15.66 67.116 15.864C67.368 16.056 67.752 16.152 68.268 16.152C68.736 16.152 69.144 16.092 69.516 15.96C70.0656 15.795 70.5461 15.4547 70.8841 14.991C71.2222 14.5273 71.3991 13.9657 71.388 13.392Z" fill="white"/>
<path d="M79.152 17.88H76.704V1.79999H79.152V17.88ZM83.76 17.736C84.264 18.012 84.876 18.144 85.572 18.144C86.2028 18.1686 86.8304 18.042 87.4023 17.7748C87.9743 17.5076 88.4741 17.1076 88.86 16.608L88.092 14.328C87.924 14.664 87.66 15 87.324 15.336C86.988 15.66 86.604 15.816 86.124 15.816C85.692 15.816 85.332 15.696 85.044 15.48C84.78 15.252 84.636 14.808 84.636 14.136V8.13599H88.308V6.23999H84.636V3.14399L82.2 4.77599V6.23999H80.352V8.13599H82.2V14.784C82.2 15.456 82.344 16.044 82.608 16.56C82.884 17.052 83.268 17.448 83.76 17.736Z" fill="white"/>
</g>
<defs>
<clipPath id="clip0_1_45">
<rect width="90" height="24" fill="white"/>
</clipPath>
</defs>
</svg>
